<mxGraphModel dx="0" dy="0" grid="1" gridSize="10" guides="1" tooltips="1" connect="1" arrows="1" fold="1" page="0" pageScale="1" background="none" math="0" shadow="0">
  <root>
    <mxCell id="0" />
    <mxCell id="1" parent="0" />
    <mxCell id="node5" parent="1" vertex="1" value="&lt;p style=&quot;margin:0px;margin-top:4px;text-align:center;&quot;&gt;&lt;b&gt;Activity&lt;/b&gt;&lt;/p&gt;&lt;hr size=&quot;1&quot;/&gt;&lt;p style=&quot;margin:0 0 0 4px;line-height:1.6;&quot;&gt;- id: Long&lt;br/&gt;- serialVersionUID: long&lt;br/&gt;- title: String&lt;br/&gt;- summary: String&lt;br/&gt;- auditStatus: String&lt;br/&gt;- categoryId: Integer&lt;br/&gt;- location: String&lt;br/&gt;- clubId: Long&lt;br/&gt;- likes: Integer&lt;br/&gt;- avatar: String&lt;br/&gt;- startDate: LocalDateTime&lt;br/&gt;- stars: Integer&lt;br/&gt;- weight: Integer&lt;br/&gt;- views: Integer&lt;br/&gt;- contentId: Long&lt;br/&gt;- organizerId: Long&lt;br/&gt;- comments: Integer&lt;br/&gt;- auditContent: String&lt;br/&gt;- endDate: LocalDateTime&lt;br/&gt;- capacity: Integer&lt;br/&gt;- participants: Integer&lt;/p&gt;&lt;hr size=&quot;1&quot;/&gt;&lt;p style=&quot;margin:0 0 0 4px;line-height:1.6;&quot;&gt;+ getTitle(): String&lt;br/&gt;+ getAuditStatus(): String&lt;br/&gt;+ getId(): Long&lt;br/&gt;+ setAvatar(String): void&lt;br/&gt;+ setLikes(Integer): void&lt;br/&gt;# canEqual(Object): boolean&lt;br/&gt;+ getStars(): Integer&lt;br/&gt;+ setId(Long): void&lt;br/&gt;+ getAvatar(): String&lt;br/&gt;+ getLikes(): Integer&lt;br/&gt;+ getStartDate(): LocalDateTime&lt;br/&gt;+ getSummary(): String&lt;br/&gt;+ getClubId(): Long&lt;br/&gt;+ getComments(): Integer&lt;br/&gt;+ getContentId(): Long&lt;br/&gt;+ setAuditContent(String): void&lt;br/&gt;+ setStartDate(LocalDateTime): void&lt;br/&gt;+ toString(): String&lt;br/&gt;+ setOrganizerId(Long): void&lt;br/&gt;+ setSummary(String): void&lt;br/&gt;+ getAuditContent(): String&lt;br/&gt;+ setClubId(Long): void&lt;br/&gt;+ setViews(Integer): void&lt;br/&gt;+ getCategoryId(): Integer&lt;br/&gt;+ setComments(Integer): void&lt;br/&gt;+ getLocation(): String&lt;br/&gt;+ setWeight(Integer): void&lt;br/&gt;+ getViews(): Integer&lt;br/&gt;+ setStars(Integer): void&lt;br/&gt;+ setParticipants(Integer): void&lt;br/&gt;+ equals(Object): boolean&lt;br/&gt;+ hashCode(): int&lt;br/&gt;+ setCapacity(Integer): void&lt;br/&gt;+ getCapacity(): Integer&lt;br/&gt;+ setEndDate(LocalDateTime): void&lt;br/&gt;+ setCategoryId(Integer): void&lt;br/&gt;+ setTitle(String): void&lt;br/&gt;+ setAuditStatus(String): void&lt;br/&gt;+ getOrganizerId(): Long&lt;br/&gt;+ getWeight(): Integer&lt;br/&gt;+ setLocation(String): void&lt;br/&gt;+ setContentId(Long): void&lt;br/&gt;+ getEndDate(): LocalDateTime&lt;br/&gt;+ getParticipants(): Integer&lt;/p&gt;" style="verticalAlign=top;align=left;overflow=fill;fontSize=14;fontFamily=Helvetica;html=1;rounded=0;shadow=0;comic=0;labelBackgroundColor=none;strokeWidth=1;">
      <mxGeometry x="53" y="424" width="247" height="1528" as="geometry" />
    </mxCell>
    <mxCell id="node3" parent="1" vertex="1" value="&lt;p style=&quot;margin:0px;margin-top:4px;text-align:center;&quot;&gt;&lt;b&gt;ActivityContent&lt;/b&gt;&lt;/p&gt;&lt;hr size=&quot;1&quot;/&gt;&lt;p style=&quot;margin:0 0 0 4px;line-height:1.6;&quot;&gt;- id: Long&lt;br/&gt;- content: String&lt;br/&gt;- serialVersionUID: long&lt;br/&gt;- contentHtml: String&lt;/p&gt;&lt;hr size=&quot;1&quot;/&gt;&lt;p style=&quot;margin:0 0 0 4px;line-height:1.6;&quot;&gt;+ getContentHtml(): String&lt;br/&gt;+ getId(): Long&lt;br/&gt;+ getContent(): String&lt;br/&gt;+ setId(Long): void&lt;br/&gt;+ setContent(String): void&lt;br/&gt;+ setContentHtml(String): void&lt;br/&gt;+ toString(): String&lt;br/&gt;+ equals(Object): boolean&lt;br/&gt;# canEqual(Object): boolean&lt;br/&gt;+ hashCode(): int&lt;/p&gt;" style="verticalAlign=top;align=left;overflow=fill;fontSize=14;fontFamily=Helvetica;html=1;rounded=0;shadow=0;comic=0;labelBackgroundColor=none;strokeWidth=1;">
      <mxGeometry x="-232" y="1748" width="217" height="355" as="geometry" />
    </mxCell>
    <mxCell id="node1" parent="1" vertex="1" value="&lt;p style=&quot;margin:0px;margin-top:4px;text-align:center;&quot;&gt;&lt;b&gt;ActivityTag&lt;/b&gt;&lt;/p&gt;&lt;hr size=&quot;1&quot;/&gt;&lt;p style=&quot;margin:0 0 0 4px;line-height:1.6;&quot;&gt;- serialVersionUID: long&lt;br/&gt;- tagId: Integer&lt;br/&gt;- activityId: Long&lt;br/&gt;- id: Long&lt;/p&gt;&lt;hr size=&quot;1&quot;/&gt;&lt;p style=&quot;margin:0 0 0 4px;line-height:1.6;&quot;&gt;+ setId(Long): void&lt;br/&gt;+ getId(): Long&lt;br/&gt;+ getActivityId(): Long&lt;br/&gt;+ getTagId(): Integer&lt;br/&gt;+ setActivityId(Long): void&lt;br/&gt;+ setTagId(Integer): void&lt;br/&gt;+ toString(): String&lt;br/&gt;+ equals(Object): boolean&lt;br/&gt;# canEqual(Object): boolean&lt;br/&gt;+ hashCode(): int&lt;/p&gt;" style="verticalAlign=top;align=left;overflow=fill;fontSize=14;fontFamily=Helvetica;html=1;rounded=0;shadow=0;comic=0;labelBackgroundColor=none;strokeWidth=1;">
      <mxGeometry x="-498" y="1966" width="201" height="355" as="geometry" />
    </mxCell>
    <mxCell id="node11" parent="1" vertex="1" value="&lt;p style=&quot;margin:0px;margin-top:4px;text-align:center;&quot;&gt;&lt;b&gt;ApplicationVO&lt;/b&gt;&lt;/p&gt;&lt;hr size=&quot;1&quot;/&gt;&lt;p style=&quot;margin:0 0 0 4px;line-height:1.6;&quot;&gt;+ email: String&lt;br/&gt;+ username: String&lt;br/&gt;+ avatar: String&lt;br/&gt;+ mobile: String&lt;br/&gt;+ gender: Integer&lt;br/&gt;+ name: String&lt;br/&gt;+ age: Integer&lt;/p&gt;" style="verticalAlign=top;align=left;overflow=fill;fontSize=14;fontFamily=Helvetica;html=1;rounded=0;shadow=0;comic=0;labelBackgroundColor=none;strokeWidth=1;">
      <mxGeometry x="863" y="2044" width="154" height="192" as="geometry" />
    </mxCell>
    <mxCell id="node7" parent="1" vertex="1" value="&lt;p style=&quot;margin:0px;margin-top:4px;text-align:center;&quot;&gt;&lt;b&gt;BaseEntity&lt;/b&gt;&lt;/p&gt;&lt;hr size=&quot;1&quot;/&gt;&lt;p style=&quot;margin:0 0 0 4px;line-height:1.6;&quot;&gt;+ updateDate: Date&lt;br/&gt;+ createDate: Date&lt;/p&gt;&lt;hr size=&quot;1&quot;/&gt;&lt;p style=&quot;margin:0 0 0 4px;line-height:1.6;&quot;&gt;+ getCreateDate(): Date&lt;br/&gt;+ getUpdateDate(): Date&lt;br/&gt;+ setCreateDate(Date): void&lt;br/&gt;+ setUpdateDate(Date): void&lt;br/&gt;+ equals(Object): boolean&lt;br/&gt;# canEqual(Object): boolean&lt;br/&gt;+ hashCode(): int&lt;br/&gt;+ toString(): String&lt;/p&gt;" style="verticalAlign=top;align=left;overflow=fill;fontSize=14;fontFamily=Helvetica;html=1;rounded=0;shadow=0;comic=0;labelBackgroundColor=none;strokeWidth=1;">
      <mxGeometry x="-807" y="1683" width="203" height="263" as="geometry" />
    </mxCell>
    <mxCell id="node0" parent="1" vertex="1" value="&lt;p style=&quot;margin:0px;margin-top:4px;text-align:center;&quot;&gt;&lt;b&gt;Category&lt;/b&gt;&lt;/p&gt;&lt;hr size=&quot;1&quot;/&gt;&lt;p style=&quot;margin:0 0 0 4px;line-height:1.6;&quot;&gt;- serialVersionUID: long&lt;br/&gt;- name: String&lt;br/&gt;- avatar: String&lt;br/&gt;- id: Integer&lt;br/&gt;- description: String&lt;/p&gt;&lt;hr size=&quot;1&quot;/&gt;&lt;p style=&quot;margin:0 0 0 4px;line-height:1.6;&quot;&gt;+ setName(String): void&lt;br/&gt;+ getId(): Integer&lt;br/&gt;+ getName(): String&lt;br/&gt;+ getAvatar(): String&lt;br/&gt;+ getDescription(): String&lt;br/&gt;+ setId(Integer): void&lt;br/&gt;+ setAvatar(String): void&lt;br/&gt;+ setDescription(String): void&lt;br/&gt;+ hashCode(): int&lt;br/&gt;# canEqual(Object): boolean&lt;br/&gt;+ toString(): String&lt;br/&gt;+ equals(Object): boolean&lt;/p&gt;" style="verticalAlign=top;align=left;overflow=fill;fontSize=14;fontFamily=Helvetica;html=1;rounded=0;shadow=0;comic=0;labelBackgroundColor=none;strokeWidth=1;">
      <mxGeometry x="-770" y="2030" width="208" height="424" as="geometry" />
    </mxCell>
    <mxCell id="node6" parent="1" vertex="1" value="&lt;p style=&quot;margin:0px;margin-top:4px;text-align:center;&quot;&gt;&lt;b&gt;Club&lt;/b&gt;&lt;/p&gt;&lt;hr size=&quot;1&quot;/&gt;&lt;p style=&quot;margin:0 0 0 4px;line-height:1.6;&quot;&gt;- presidentId: Long&lt;br/&gt;- name: String&lt;br/&gt;- description: String&lt;br/&gt;- avatar: String&lt;br/&gt;- creatorId: Long&lt;br/&gt;- id: Long&lt;br/&gt;- serialVersionUID: long&lt;br/&gt;- typeId: Integer&lt;/p&gt;&lt;hr size=&quot;1&quot;/&gt;&lt;p style=&quot;margin:0 0 0 4px;line-height:1.6;&quot;&gt;+ setId(Long): void&lt;br/&gt;+ getId(): Long&lt;br/&gt;+ getName(): String&lt;br/&gt;# canEqual(Object): boolean&lt;br/&gt;+ hashCode(): int&lt;br/&gt;+ toString(): String&lt;br/&gt;+ getAvatar(): String&lt;br/&gt;+ getDescription(): String&lt;br/&gt;+ setPresidentId(Long): void&lt;br/&gt;+ getCreatorId(): Long&lt;br/&gt;+ getPresidentId(): Long&lt;br/&gt;+ setDescription(String): void&lt;br/&gt;+ getTypeId(): Integer&lt;br/&gt;+ setCreatorId(Long): void&lt;br/&gt;+ equals(Object): boolean&lt;br/&gt;+ setName(String): void&lt;br/&gt;+ setTypeId(Integer): void&lt;br/&gt;+ setAvatar(String): void&lt;/p&gt;" style="verticalAlign=top;align=left;overflow=fill;fontSize=14;fontFamily=Helvetica;html=1;rounded=0;shadow=0;comic=0;labelBackgroundColor=none;strokeWidth=1;">
      <mxGeometry x="389" y="1223" width="208" height="631" as="geometry" />
    </mxCell>
    <mxCell id="node8" parent="1" vertex="1" value="&lt;p style=&quot;margin:0px;margin-top:4px;text-align:center;&quot;&gt;&lt;b&gt;ClubMember&lt;/b&gt;&lt;/p&gt;&lt;hr size=&quot;1&quot;/&gt;&lt;p style=&quot;margin:0 0 0 4px;line-height:1.6;&quot;&gt;- userId: Long&lt;br/&gt;- role: String&lt;br/&gt;- serialVersionUID: long&lt;br/&gt;- id: Long&lt;br/&gt;- clubId: Long&lt;/p&gt;&lt;hr size=&quot;1&quot;/&gt;&lt;p style=&quot;margin:0 0 0 4px;line-height:1.6;&quot;&gt;+ getRole(): String&lt;br/&gt;+ getId(): Long&lt;br/&gt;# canEqual(Object): boolean&lt;br/&gt;+ getClubId(): Long&lt;br/&gt;+ getUserId(): Long&lt;br/&gt;+ hashCode(): int&lt;br/&gt;+ setId(Long): void&lt;br/&gt;+ setClubId(Long): void&lt;br/&gt;+ setUserId(Long): void&lt;br/&gt;+ setRole(String): void&lt;br/&gt;+ toString(): String&lt;br/&gt;+ equals(Object): boolean&lt;/p&gt;" style="verticalAlign=top;align=left;overflow=fill;fontSize=14;fontFamily=Helvetica;html=1;rounded=0;shadow=0;comic=0;labelBackgroundColor=none;strokeWidth=1;">
      <mxGeometry x="436" y="2605" width="201" height="424" as="geometry" />
    </mxCell>
    <mxCell id="node9" parent="1" vertex="1" value="&lt;p style=&quot;margin:0px;margin-top:4px;text-align:center;&quot;&gt;&lt;b&gt;ClubMessageBoard&lt;/b&gt;&lt;/p&gt;&lt;hr size=&quot;1&quot;/&gt;&lt;p style=&quot;margin:0 0 0 4px;line-height:1.6;&quot;&gt;- id: Long&lt;br/&gt;- userId: Long&lt;br/&gt;- serialVersionUID: long&lt;br/&gt;- clubId: Long&lt;br/&gt;- content: String&lt;/p&gt;&lt;hr size=&quot;1&quot;/&gt;&lt;p style=&quot;margin:0 0 0 4px;line-height:1.6;&quot;&gt;+ getId(): Long&lt;br/&gt;+ getContent(): String&lt;br/&gt;+ getClubId(): Long&lt;br/&gt;+ hashCode(): int&lt;br/&gt;+ getUserId(): Long&lt;br/&gt;+ setId(Long): void&lt;br/&gt;+ setContent(String): void&lt;br/&gt;+ setClubId(Long): void&lt;br/&gt;+ setUserId(Long): void&lt;br/&gt;+ toString(): String&lt;br/&gt;# canEqual(Object): boolean&lt;br/&gt;+ equals(Object): boolean&lt;/p&gt;" style="verticalAlign=top;align=left;overflow=fill;fontSize=14;fontFamily=Helvetica;html=1;rounded=0;shadow=0;comic=0;labelBackgroundColor=none;strokeWidth=1;">
      <mxGeometry x="286" y="2023" width="201" height="424" as="geometry" />
    </mxCell>
    <mxCell id="node4" parent="1" vertex="1" value="&lt;p style=&quot;margin:0px;margin-top:4px;text-align:center;&quot;&gt;&lt;b&gt;ClubType&lt;/b&gt;&lt;/p&gt;&lt;hr size=&quot;1&quot;/&gt;&lt;p style=&quot;margin:0 0 0 4px;line-height:1.6;&quot;&gt;- description: String&lt;br/&gt;- serialVersionUID: long&lt;br/&gt;- name: String&lt;br/&gt;- avatar: String&lt;br/&gt;- id: Long&lt;/p&gt;&lt;hr size=&quot;1&quot;/&gt;&lt;p style=&quot;margin:0 0 0 4px;line-height:1.6;&quot;&gt;+ getAvatar(): String&lt;br/&gt;+ getId(): Long&lt;br/&gt;+ getName(): String&lt;br/&gt;+ getDescription(): String&lt;br/&gt;+ setId(Long): void&lt;br/&gt;+ setName(String): void&lt;br/&gt;+ setAvatar(String): void&lt;br/&gt;+ setDescription(String): void&lt;br/&gt;+ toString(): String&lt;br/&gt;+ hashCode(): int&lt;br/&gt;+ equals(Object): boolean&lt;br/&gt;# canEqual(Object): boolean&lt;/p&gt;" style="verticalAlign=top;align=left;overflow=fill;fontSize=14;fontFamily=Helvetica;html=1;rounded=0;shadow=0;comic=0;labelBackgroundColor=none;strokeWidth=1;">
      <mxGeometry x="-101" y="2228" width="208" height="424" as="geometry" />
    </mxCell>
    <mxCell id="node2" parent="1" vertex="1" value="&lt;p style=&quot;margin:0px;margin-top:4px;text-align:center;&quot;&gt;&lt;b&gt;Menu&lt;/b&gt;&lt;/p&gt;&lt;hr size=&quot;1&quot;/&gt;&lt;p style=&quot;margin:0 0 0 4px;line-height:1.6;&quot;&gt;- menuClick: String&lt;br/&gt;- menuLevel: String&lt;br/&gt;- menuParentCode: String&lt;br/&gt;- menuRight: String&lt;br/&gt;- menuName: String&lt;br/&gt;- serialVersionUID: long&lt;br/&gt;- id: Integer&lt;br/&gt;- menuComponent: String&lt;br/&gt;- menuIcon: String&lt;br/&gt;- menuCode: String&lt;/p&gt;&lt;hr size=&quot;1&quot;/&gt;&lt;p style=&quot;margin:0 0 0 4px;line-height:1.6;&quot;&gt;+ getMenuClick(): String&lt;br/&gt;+ getId(): Integer&lt;br/&gt;+ getMenuName(): String&lt;br/&gt;# canEqual(Object): boolean&lt;br/&gt;+ setMenuName(String): void&lt;br/&gt;+ setMenuLevel(String): void&lt;br/&gt;+ equals(Object): boolean&lt;br/&gt;+ getMenuComponent(): String&lt;br/&gt;+ getMenuIcon(): String&lt;br/&gt;+ getMenuRight(): String&lt;br/&gt;+ getMenuCode(): String&lt;br/&gt;+ setMenuComponent(String): void&lt;br/&gt;+ setMenuClick(String): void&lt;br/&gt;+ setMenuRight(String): void&lt;br/&gt;+ setMenuIcon(String): void&lt;br/&gt;+ setMenuCode(String): void&lt;br/&gt;+ getMenuLevel(): String&lt;br/&gt;+ getMenuParentCode(): String&lt;br/&gt;+ setMenuParentCode(String): void&lt;br/&gt;+ hashCode(): int&lt;br/&gt;+ setId(Integer): void&lt;br/&gt;+ toString(): String&lt;/p&gt;" style="verticalAlign=top;align=left;overflow=fill;fontSize=14;fontFamily=Helvetica;html=1;rounded=0;shadow=0;comic=0;labelBackgroundColor=none;strokeWidth=1;">
      <mxGeometry x="-635" y="841" width="244" height="769" as="geometry" />
    </mxCell>
    <mxCell id="node10" parent="1" vertex="1" value="&lt;p style=&quot;margin:0px;margin-top:4px;text-align:center;&quot;&gt;&lt;b&gt;Tag&lt;/b&gt;&lt;/p&gt;&lt;hr size=&quot;1&quot;/&gt;&lt;p style=&quot;margin:0 0 0 4px;line-height:1.6;&quot;&gt;- name: String&lt;br/&gt;- serialVersionUID: long&lt;br/&gt;- id: Integer&lt;br/&gt;- avatar: String&lt;br/&gt;- description: String&lt;/p&gt;&lt;hr size=&quot;1&quot;/&gt;&lt;p style=&quot;margin:0 0 0 4px;line-height:1.6;&quot;&gt;+ getAvatar(): String&lt;br/&gt;+ getId(): Integer&lt;br/&gt;+ getName(): String&lt;br/&gt;+ getDescription(): String&lt;br/&gt;+ setId(Integer): void&lt;br/&gt;# canEqual(Object): boolean&lt;br/&gt;+ hashCode(): int&lt;br/&gt;+ setName(String): void&lt;br/&gt;+ setAvatar(String): void&lt;br/&gt;+ setDescription(String): void&lt;br/&gt;+ toString(): String&lt;br/&gt;+ equals(Object): boolean&lt;/p&gt;" style="verticalAlign=top;align=left;overflow=fill;fontSize=14;fontFamily=Helvetica;html=1;rounded=0;shadow=0;comic=0;labelBackgroundColor=none;strokeWidth=1;">
      <mxGeometry x="575" y="1915" width="208" height="424" as="geometry" />
    </mxCell>
    <mxCell id="edge3" edge="1" value="" parent="1" source="node5" target="node7" style="html=1;rounded=1;edgeStyle=orthogonalEdgeStyle;dashed=0;startArrow=none;endArrow=block;endSize=12;strokeColor=#000082;exitX=0.500;exitY=1.000;exitDx=0;exitDy=0;entryX=1.000;entryY=0.500;entryDx=0;entryDy=0;">
      <mxGeometry width="50" height="50" relative="1" as="geometry">
        <Array as="points">
          <mxPoint x="177" y="1988" />
          <mxPoint x="18" y="1988" />
          <mxPoint x="18" y="2166" />
          <mxPoint x="-250" y="2166" />
          <mxPoint x="-250" y="1814" />
        </Array>
      </mxGeometry>
    </mxCell>
    <mxCell id="edge7" edge="1" value="" parent="1" source="node3" target="node7" style="html=1;rounded=1;edgeStyle=orthogonalEdgeStyle;dashed=0;startArrow=none;endArrow=block;endSize=12;strokeColor=#000082;exitX=0.500;exitY=1.000;exitDx=0;exitDy=0;entryX=1.000;entryY=0.500;entryDx=0;entryDy=0;">
      <mxGeometry width="50" height="50" relative="1" as="geometry">
        <Array as="points">
          <mxPoint x="-124" y="2166" />
          <mxPoint x="-250" y="2166" />
          <mxPoint x="-250" y="1814" />
        </Array>
      </mxGeometry>
    </mxCell>
    <mxCell id="edge0" edge="1" value="" parent="1" source="node1" target="node7" style="html=1;rounded=1;edgeStyle=orthogonalEdgeStyle;dashed=0;startArrow=none;endArrow=block;endSize=12;strokeColor=#000082;exitX=1.000;exitY=0.500;exitDx=0;exitDy=0;entryX=1.000;entryY=0.500;entryDx=0;entryDy=0;">
      <mxGeometry width="50" height="50" relative="1" as="geometry">
        <Array as="points">
          <mxPoint x="-265" y="2143" />
          <mxPoint x="-265" y="2166" />
          <mxPoint x="-250" y="2166" />
          <mxPoint x="-250" y="1814" />
        </Array>
      </mxGeometry>
    </mxCell>
    <mxCell id="edge9" edge="1" value="" parent="1" source="node11" target="node7" style="html=1;rounded=1;edgeStyle=orthogonalEdgeStyle;dashed=0;startArrow=none;endArrow=block;endSize=12;strokeColor=#000082;exitX=0.500;exitY=1.000;exitDx=0;exitDy=0;entryX=1.000;entryY=0.500;entryDx=0;entryDy=0;">
      <mxGeometry width="50" height="50" relative="1" as="geometry">
        <Array as="points">
          <mxPoint x="940" y="2356" />
          <mxPoint x="532" y="2356" />
          <mxPoint x="532" y="1988" />
          <mxPoint x="18" y="1988" />
          <mxPoint x="18" y="2166" />
          <mxPoint x="-250" y="2166" />
          <mxPoint x="-250" y="1814" />
        </Array>
      </mxGeometry>
    </mxCell>
    <mxCell id="edge1" edge="1" value="" parent="1" source="node0" target="node7" style="html=1;rounded=1;edgeStyle=orthogonalEdgeStyle;dashed=0;startArrow=none;endArrow=block;endSize=12;strokeColor=#000082;exitX=1.000;exitY=0.728;exitDx=0;exitDy=0;entryX=1.000;entryY=0.500;entryDx=0;entryDy=0;">
      <mxGeometry width="50" height="50" relative="1" as="geometry">
        <Array as="points">
          <mxPoint x="-119" y="2338" />
          <mxPoint x="-119" y="2166" />
          <mxPoint x="-250" y="2166" />
          <mxPoint x="-250" y="1814" />
        </Array>
      </mxGeometry>
    </mxCell>
    <mxCell id="edge4" edge="1" value="" parent="1" source="node6" target="node7" style="html=1;rounded=1;edgeStyle=orthogonalEdgeStyle;dashed=0;startArrow=none;endArrow=block;endSize=12;strokeColor=#000082;exitX=0.484;exitY=1.000;exitDx=0;exitDy=0;entryX=1.000;entryY=0.500;entryDx=0;entryDy=0;">
      <mxGeometry width="50" height="50" relative="1" as="geometry">
        <Array as="points">
          <mxPoint x="490" y="1988" />
          <mxPoint x="18" y="1988" />
          <mxPoint x="18" y="2166" />
          <mxPoint x="-250" y="2166" />
          <mxPoint x="-250" y="1814" />
        </Array>
      </mxGeometry>
    </mxCell>
    <mxCell id="edge2" edge="1" value="" parent="1" source="node8" target="node7" style="html=1;rounded=1;edgeStyle=orthogonalEdgeStyle;dashed=0;startArrow=none;endArrow=block;endSize=12;strokeColor=#000082;exitX=0.219;exitY=0.000;exitDx=0;exitDy=0;entryX=1.000;entryY=0.500;entryDx=0;entryDy=0;">
      <mxGeometry width="50" height="50" relative="1" as="geometry">
        <Array as="points">
          <mxPoint x="480" y="2480" />
          <mxPoint x="532" y="2480" />
          <mxPoint x="532" y="1988" />
          <mxPoint x="18" y="1988" />
          <mxPoint x="18" y="2166" />
          <mxPoint x="-250" y="2166" />
          <mxPoint x="-250" y="1814" />
        </Array>
      </mxGeometry>
    </mxCell>
    <mxCell id="edge6" edge="1" value="" parent="1" source="node9" target="node7" style="html=1;rounded=1;edgeStyle=orthogonalEdgeStyle;dashed=0;startArrow=none;endArrow=block;endSize=12;strokeColor=#000082;exitX=0.500;exitY=0.000;exitDx=0;exitDy=0;entryX=1.000;entryY=0.500;entryDx=0;entryDy=0;">
      <mxGeometry width="50" height="50" relative="1" as="geometry">
        <Array as="points">
          <mxPoint x="387" y="1988" />
          <mxPoint x="18" y="1988" />
          <mxPoint x="18" y="2166" />
          <mxPoint x="-250" y="2166" />
          <mxPoint x="-250" y="1814" />
        </Array>
      </mxGeometry>
    </mxCell>
    <mxCell id="edge5" edge="1" value="" parent="1" source="node4" target="node7" style="html=1;rounded=1;edgeStyle=orthogonalEdgeStyle;dashed=0;startArrow=none;endArrow=block;endSize=12;strokeColor=#000082;exitX=0.500;exitY=0.000;exitDx=0;exitDy=0;entryX=1.000;entryY=0.500;entryDx=0;entryDy=0;">
      <mxGeometry width="50" height="50" relative="1" as="geometry">
        <Array as="points">
          <mxPoint x="3" y="2166" />
          <mxPoint x="-250" y="2166" />
          <mxPoint x="-250" y="1814" />
        </Array>
      </mxGeometry>
    </mxCell>
    <mxCell id="edge8" edge="1" value="" parent="1" source="node10" target="node7" style="html=1;rounded=1;edgeStyle=orthogonalEdgeStyle;dashed=0;startArrow=none;endArrow=block;endSize=12;strokeColor=#000082;exitX=0.000;exitY=0.500;exitDx=0;exitDy=0;entryX=1.000;entryY=0.500;entryDx=0;entryDy=0;">
      <mxGeometry width="50" height="50" relative="1" as="geometry">
        <Array as="points">
          <mxPoint x="532" y="2127" />
          <mxPoint x="532" y="1988" />
          <mxPoint x="18" y="1988" />
          <mxPoint x="18" y="2166" />
          <mxPoint x="-250" y="2166" />
          <mxPoint x="-250" y="1814" />
        </Array>
      </mxGeometry>
    </mxCell>
  </root>
</mxGraphModel>